<svg width="114" height="66" fill="none" xmlns="http://www.w3.org/2000/svg"><g filter="url(#filter0_d)" fill="#000"><path d="M18.677 26.364c7.468-4.476 15.212-15.635 17.578-21.213l3.54-.917c-4.824 25.23-22.86 46.29-30.762 46.29-4.213 0-8.606-7.446-.462-20.54l5.84 4.078c-4.52 4.114-6.028 10.454-5.626 15.605 11.224-8.91 20.114-23.98 25.02-36.497-4.527 6.37-9.122 11.597-16.814 17.636l-.708-.705.431-.98-1.352.06 1.071-3.372-2.15 2.272-1.292-1.319c6.085-8.031 9.342-16.585 12.478-25.199C19.353 3.465 9.119 20.108 6.692 26.46l.43-6.012 8.82-13.613-8.728 12.293.276-4.23C15.512 3.188 22.672 0 27.067 0l2.274 2.636c-1.875 8.584-5.686 16.37-10.664 23.728z"/><path fill-rule="evenodd" clip-rule="evenodd" d="M99.81 34.764l7.068-1.717-4.435 2.054 6.945-2.421-12.993 5.793 1.025-5.427c-1.473 2.438-3.113 4.58-4.956 6.346l-3.682 1.13c-1.476-3.157-1.045-9.319 5.685-12.874l1.69.735-.804.338 1.014-.062-3.319 2.206 3.688-2.024.614.061.949.401 3.415-1.069-1.904 6.53zm-7.636 3.415c-.331-4.008 1.793-7.898 5.76-8.62-1.34 3.233-3.352 6.056-5.76 8.62zM82.686 24.157c3.908-1.708 7.1-5.417 8.999-9.557L88.56 23.18l.615-.246.983-2.426-.584 2.146 2.12-.802a29.633 29.633 0 004.287-5.273l-1.642 5.063s4.793-2.697 6.453-4.568l-.461.185 2.343-2.123 5.911-1.296-3.657 1.563 5.071-1.87-3.012.4 1.998-.49.307-.644-3.903.761 3.683-.855.153-.551-6.731 1.349-.369 1.336c-1.742 1.526-4.473 3.244-4.473 3.244l3.288-7.387-3.72 1.164c-1.225 3.032-3.046 5.703-5.232 8.139l3.556-10.927-3.259 1.203c-1.572 4.008-4.582 9.258-8.085 11.438l2.37-4.087-2.059-.429c-1.666 1.87-2.834 5.242-1.826 6.959zm20.007-9.84c-.12.12-.251.241-.388.367l.388-.368zm-.571.534l-.118.426.401-.087-3.244 2.468 2.961-2.807zM40.69 39.75l.053-.05-.708 1.103.64-1.033-1.53 1.462 10.881-20.559c-3.487 4.408-8.434 9.12-13.248 11.091l-2.828-1.501c2.03-6.013 6.762-12.851 12.138-18.158l-3.349 2.207 4.088-2.94c-4.118 2.208-7.867 5.095-10.264 7.634l1.66-4.107c2.458-3.71 7.683-5.978 9.034-6.04l2.982 3.039c-4.917 4.322-10.572 12.104-12.877 16.646l5.317-7.51-4.58 7.726c.612-.382 1.236-.754 1.871-1.134 3.595-2.146 7.55-4.507 11.588-9.844l3.812-7.201 3.658-1.203-3.44 6.786c3.045-3.68 6.487-6.8 9.279-6.814 2.115-.015 1.153 4.364-1.191 9.053a33.583 33.583 0 006.386-5.224l1.844-3.148 3.657-1.202-4.985 9.167a21.19 21.19 0 002.411-1.133c.802-1.992 2.17-3.91 3.955-5.152l3.196-.92a43.8 43.8 0 01-2.479 3.481c-1.483 2.493-3.082 5.911-3.205 9.027 1.72-1.257 5.31-6.131 6.515-10.363l-3.873 3.924 4.272-6.191 2.833 2.704c-.307 4.23-5.286 11.588-9.127 11.588-1.66 0-2.89-1.227-2.89-4.262.003-.52.051-1.038.144-1.549a21.233 21.233 0 01-3.225 1.568l-2.358 4.334-1.205.331 1.689-3.04-3.134 3.68.803-1.747-1.382 1.96-1.384.522 7.769-13.309c-2.769 3.27-5.142 5.502-7.387 7.099-2.723 4.686-6.567 9.061-9.85 9.061-.337 0-1.168-2.605-.522-5.824a57.636 57.636 0 007.462-3.073c1.808-3.552 2.775-7.307 2.865-8.818-1.289 0-5.614 4.568-9.192 8.829L43.755 39.52l-1.999.614.983-1.165-1.935 1.47 5.163-9.228-5.277 8.538zm13.236-15.318c0 .486.185 2.758.43 2.758 1.542-1.01 2.881-2.539 3.99-4.265a31.332 31.332 0 01-4.42 1.507z"/><path fill-rule="evenodd" clip-rule="evenodd" d="M91.819 26.333L88.1 27.59l-3.903 3.34 2.736-2.939-.461.154-7.501 7.779 3.387-6.216-3.656 1.196-1.253 2.098c-3.822 5.862-8.88 9.285-10.148 9.642a6.54 6.54 0 01-.42-2.854 68.38 68.38 0 002.201-1.286c-.707.335-1.435.653-2.174.955l.008-.07.006-.055.01-.08c3.298-1.416 6.758-3.38 8.476-5.686l-3.934-3.305c-4.445 0-7.953 5.573-8.391 10.052-.951.343-2.01.684-3.179 1.027 2.876-5.192 4.286-10.513 1.952-10.497-2.939.015-6.606 3.63-9.778 7.733l3.931-7.702-3.656 1.196L38.437 58l2.398-.889 3.502-5.916-2.427 5.522 2.278-4.2-1.138 3.771 6.5-12.745c3.7-4.69 8.529-10.154 9.91-10.154-.092 1.573-1.136 5.581-3.092 9.26-2.062.453-4.149.79-6.25 1.01-.645 3.22-.803 7.45-.46 7.45 2.946 0 6.343-3.525 8.974-7.632a53.213 53.213 0 004.42-1.755c.074 1.228.435 2.3 1.138 3.041 2.464 0 6.523-2.565 9.734-5.864l-2.88 4.82 1.66-.611 3.903-4.966-2.367 4.383 1.415-.52 2.784-5.111.912-.34 6.936 8.15 4.119-1.655-7.854-7.777 9.267-8.939zM71.727 31.76v.018c0 1.894 0 4.307-4.688 6.82.62-3.205 2.859-6.282 4.682-6.838h.006zM51.344 48.681c-.247 0-.43-2.272-.43-2.76 1.114-.368 2.205-.701 3.297-1.035l1.012-.31c-1.088 1.656-2.381 3.125-3.879 4.105zm8.418-7.092a24.913 24.913 0 003.287-.875v.148a65.502 65.502 0 01-3.438 1.006l.151-.28z"/></g><defs><filter id="filter0_d" x="0" y="0" width="114" height="66" filterUnits="userSpaceOnUse" color-interpolation-filters="sRGB"><feFlood flood-opacity="0" result="BackgroundImageFix"/><feColorMatrix in="SourceAlpha" values="0 0 0 0 0 0 0 0 0 0 0 0 0 0 0 0 0 0 127 0"/><feOffset dy="4"/><feGaussianBlur stdDeviation="2"/><feColorMatrix values="0 0 0 0 0 0 0 0 0 0 0 0 0 0 0 0 0 0 0.25 0"/><feBlend in2="BackgroundImageFix" result="effect1_dropShadow"/><feBlend in="SourceGraphic" in2="effect1_dropShadow" result="shape"/></filter></defs></svg>